<?xml version="1.0" encoding="UTF-8"?>
<svg xmlns="http://www.w3.org/2000/svg" xmlns:xlink="http://www.w3.org/1999/xlink" viewBox="0 0 42 42" width="42px" height="42px">
<g id="surface39463592">
<path style="fill-rule:nonzero;fill:rgb(100%,100%,100%);fill-opacity:1;stroke-width:10;stroke-linecap:butt;stroke-linejoin:round;stroke:rgb(60.784316%,34.901962%,71.372551%);stroke-opacity:1;stroke-miterlimit:10;" d="M 157.673439 35.825208 L 157.673439 50.163281 L 14.326562 50.163281 L 14.326562 35.825208 Z M 157.673439 78.839428 L 157.673439 93.160573 L 14.326562 93.160573 L 14.326562 78.839428 Z M 157.673439 121.83672 L 157.673439 136.174793 L 14.326562 136.174793 L 14.326562 121.83672 Z M 157.673439 121.83672 " transform="matrix(0.230756,0,0,0.230756,1.155,1.155)"/>
<path style=" stroke:none;fill-rule:nonzero;fill:rgb(100%,100%,100%);fill-opacity:1;" d="M 4.460938 9.421875 L 4.460938 12.730469 L 37.539062 12.730469 L 37.539062 9.421875 Z M 4.460938 19.347656 L 4.460938 22.652344 L 37.539062 22.652344 L 37.539062 19.347656 Z M 4.460938 29.269531 L 4.460938 32.578125 L 37.539062 32.578125 L 37.539062 29.269531 Z M 4.460938 29.269531 "/>
</g>
</svg>
